<svg xmlns="http://www.w3.org/2000/svg" xmlns:xlink="http://www.w3.org/1999/xlink" width="500" zoomAndPan="magnify" viewBox="0 0 375 374.999991" height="500" preserveAspectRatio="xMidYMid meet" version="1.0"><defs><clipPath id="c5c01b274e"><path d="M 70.226562 245 L 188 245 L 188 364 L 70.226562 364 Z M 70.226562 245 " clip-rule="nonzero"/></clipPath><clipPath id="99d3230ee9"><path d="M 70.226562 128 L 188 128 L 188 246 L 70.226562 246 Z M 70.226562 128 " clip-rule="nonzero"/></clipPath><clipPath id="ad8e59f616"><path d="M 70.226562 10 L 188 10 L 188 129 L 70.226562 129 Z M 70.226562 10 " clip-rule="nonzero"/></clipPath><clipPath id="306a2922a7"><path d="M 187 10 L 304.976562 10 L 304.976562 129 L 187 129 Z M 187 10 " clip-rule="nonzero"/></clipPath><clipPath id="2b9d48a73c"><path d="M 187 128 L 304.976562 128 L 304.976562 246 L 187 246 Z M 187 128 " clip-rule="nonzero"/></clipPath></defs><g clip-path="url(#c5c01b274e)"><path fill="#0acf83" d="M 128.222656 363.632812 C 130.152344 363.632812 132.078125 363.539062 134 363.351562 C 135.917969 363.160156 137.824219 362.878906 139.71875 362.503906 C 141.609375 362.128906 143.480469 361.660156 145.328125 361.097656 C 147.171875 360.539062 148.988281 359.890625 150.769531 359.152344 C 152.554688 358.414062 154.296875 357.59375 155.996094 356.683594 C 157.699219 355.773438 159.351562 354.785156 160.957031 353.714844 C 162.5625 352.644531 164.109375 351.496094 165.601562 350.273438 C 167.09375 349.050781 168.519531 347.757812 169.886719 346.394531 C 171.25 345.03125 172.542969 343.601562 173.769531 342.113281 C 174.992188 340.621094 176.140625 339.074219 177.210938 337.472656 C 178.285156 335.871094 179.277344 334.21875 180.183594 332.519531 C 181.09375 330.816406 181.917969 329.078125 182.65625 327.296875 C 183.394531 325.515625 184.042969 323.703125 184.605469 321.855469 C 185.164062 320.011719 185.632812 318.144531 186.011719 316.253906 C 186.386719 314.363281 186.667969 312.457031 186.859375 310.539062 C 187.046875 308.621094 187.140625 306.699219 187.140625 304.769531 L 187.140625 245.90625 L 128.222656 245.90625 C 126.292969 245.90625 124.371094 246 122.449219 246.1875 C 120.527344 246.378906 118.621094 246.660156 116.730469 247.035156 C 114.835938 247.410156 112.96875 247.878906 111.121094 248.441406 C 109.273438 249 107.460938 249.648438 105.675781 250.386719 C 103.894531 251.125 102.152344 251.945312 100.449219 252.855469 C 98.75 253.765625 97.097656 254.753906 95.492188 255.824219 C 93.886719 256.894531 92.339844 258.042969 90.847656 259.265625 C 89.355469 260.488281 87.925781 261.78125 86.5625 263.144531 C 85.199219 264.507812 83.90625 265.9375 82.679688 267.425781 C 81.457031 268.917969 80.308594 270.464844 79.234375 272.066406 C 78.164062 273.667969 77.171875 275.320312 76.261719 277.019531 C 75.355469 278.722656 74.53125 280.460938 73.792969 282.242188 C 73.054688 284.023438 72.402344 285.835938 71.84375 287.683594 C 71.285156 289.527344 70.816406 291.394531 70.4375 293.285156 C 70.0625 295.175781 69.78125 297.082031 69.589844 299 C 69.402344 300.917969 69.308594 302.839844 69.308594 304.769531 C 69.308594 306.699219 69.402344 308.621094 69.589844 310.539062 C 69.78125 312.457031 70.0625 314.363281 70.4375 316.253906 C 70.816406 318.144531 71.285156 320.011719 71.84375 321.855469 C 72.402344 323.703125 73.054688 325.515625 73.792969 327.296875 C 74.53125 329.078125 75.355469 330.816406 76.261719 332.519531 C 77.171875 334.21875 78.164062 335.871094 79.234375 337.472656 C 80.308594 339.074219 81.457031 340.621094 82.679688 342.113281 C 83.90625 343.601562 85.199219 345.03125 86.5625 346.394531 C 87.925781 347.757812 89.355469 349.050781 90.847656 350.273438 C 92.339844 351.496094 93.886719 352.644531 95.492188 353.714844 C 97.097656 354.785156 98.75 355.773438 100.449219 356.683594 C 102.152344 357.59375 103.894531 358.414062 105.675781 359.152344 C 107.460938 359.890625 109.273438 360.539062 111.121094 361.097656 C 112.96875 361.660156 114.835938 362.128906 116.730469 362.503906 C 118.621094 362.878906 120.527344 363.160156 122.449219 363.351562 C 124.371094 363.539062 126.292969 363.632812 128.222656 363.632812 Z M 128.222656 363.632812 " fill-opacity="1" fill-rule="nonzero"/></g><g clip-path="url(#99d3230ee9)"><path fill="#a259ff" d="M 69.308594 187.039062 C 69.308594 185.113281 69.402344 183.1875 69.589844 181.269531 C 69.78125 179.351562 70.0625 177.445312 70.4375 175.554688 C 70.816406 173.664062 71.285156 171.796875 71.84375 169.953125 C 72.402344 168.109375 73.054688 166.292969 73.792969 164.511719 C 74.53125 162.730469 75.355469 160.992188 76.261719 159.292969 C 77.171875 157.589844 78.164062 155.941406 79.234375 154.335938 C 80.308594 152.734375 81.457031 151.1875 82.679688 149.695312 C 83.90625 148.207031 85.199219 146.78125 86.5625 145.417969 C 87.925781 144.054688 89.355469 142.761719 90.847656 141.535156 C 92.339844 140.3125 93.886719 139.167969 95.492188 138.097656 C 97.097656 137.023438 98.75 136.035156 100.449219 135.125 C 102.152344 134.21875 103.894531 133.394531 105.675781 132.65625 C 107.460938 131.917969 109.273438 131.269531 111.121094 130.710938 C 112.96875 130.152344 114.835938 129.683594 116.730469 129.304688 C 118.621094 128.929688 120.527344 128.648438 122.449219 128.457031 C 124.371094 128.269531 126.292969 128.175781 128.222656 128.175781 L 187.140625 128.175781 L 187.140625 245.90625 L 128.222656 245.90625 C 126.292969 245.90625 124.371094 245.808594 122.449219 245.621094 C 120.527344 245.433594 118.621094 245.148438 116.730469 244.773438 C 114.835938 244.398438 112.96875 243.929688 111.121094 243.371094 C 109.273438 242.808594 107.460938 242.160156 105.675781 241.425781 C 103.894531 240.6875 102.152344 239.863281 100.449219 238.953125 C 98.75 238.046875 97.097656 237.054688 95.492188 235.984375 C 93.886719 234.914062 92.339844 233.765625 90.847656 232.542969 C 89.355469 231.320312 87.925781 230.027344 86.5625 228.664062 C 85.199219 227.300781 83.90625 225.875 82.679688 224.382812 C 81.457031 222.894531 80.308594 221.347656 79.234375 219.742188 C 78.164062 218.140625 77.171875 216.488281 76.261719 214.789062 C 75.355469 213.089844 74.53125 211.347656 73.792969 209.566406 C 73.054688 207.785156 72.402344 205.972656 71.84375 204.128906 C 71.285156 202.28125 70.816406 200.414062 70.4375 198.523438 C 70.0625 196.632812 69.78125 194.726562 69.589844 192.808594 C 69.402344 190.890625 69.308594 188.96875 69.308594 187.039062 Z M 69.308594 187.039062 " fill-opacity="1" fill-rule="nonzero"/></g><g clip-path="url(#ad8e59f616)"><path fill="#f24e1e" d="M 69.308594 69.3125 C 69.308594 67.382812 69.402344 65.460938 69.589844 63.542969 C 69.777344 61.625 70.0625 59.722656 70.4375 57.832031 C 70.8125 55.941406 71.28125 54.074219 71.839844 52.230469 C 72.402344 50.386719 73.050781 48.574219 73.789062 46.792969 C 74.523438 45.015625 75.347656 43.273438 76.257812 41.574219 C 77.164062 39.875 78.15625 38.222656 79.226562 36.621094 C 80.296875 35.019531 81.445312 33.472656 82.667969 31.984375 C 83.890625 30.492188 85.183594 29.066406 86.546875 27.703125 C 87.910156 26.339844 89.335938 25.046875 90.828125 23.824219 C 92.316406 22.601562 93.863281 21.453125 95.46875 20.382812 C 97.070312 19.3125 98.722656 18.320312 100.421875 17.410156 C 102.125 16.503906 103.863281 15.679688 105.644531 14.941406 C 107.425781 14.203125 109.242188 13.550781 111.085938 12.992188 C 112.929688 12.429688 114.800781 11.960938 116.691406 11.585938 C 118.582031 11.207031 120.488281 10.925781 122.40625 10.734375 C 124.324219 10.542969 126.25 10.449219 128.179688 10.445312 L 187.097656 10.445312 L 187.097656 128.175781 L 128.222656 128.175781 C 126.292969 128.175781 124.371094 128.082031 122.449219 127.890625 C 120.527344 127.703125 118.621094 127.421875 116.730469 127.042969 C 114.835938 126.667969 112.96875 126.199219 111.121094 125.640625 C 109.273438 125.082031 107.460938 124.433594 105.675781 123.695312 C 103.894531 122.957031 102.152344 122.132812 100.449219 121.226562 C 98.75 120.316406 97.097656 119.324219 95.492188 118.253906 C 93.886719 117.183594 92.339844 116.035156 90.847656 114.8125 C 89.355469 113.589844 87.925781 112.296875 86.5625 110.933594 C 85.199219 109.570312 83.90625 108.144531 82.679688 106.652344 C 81.457031 105.164062 80.308594 103.617188 79.234375 102.015625 C 78.164062 100.410156 77.171875 98.757812 76.261719 97.058594 C 75.355469 95.359375 74.53125 93.617188 73.792969 91.835938 C 73.054688 90.054688 72.402344 88.242188 71.84375 86.398438 C 71.285156 84.554688 70.816406 82.683594 70.4375 80.792969 C 70.0625 78.902344 69.78125 77 69.589844 75.082031 C 69.402344 73.160156 69.308594 71.238281 69.308594 69.3125 Z M 69.308594 69.3125 " fill-opacity="1" fill-rule="nonzero"/></g><g clip-path="url(#306a2922a7)"><path fill="#ff7262" d="M 187.140625 10.445312 L 246.058594 10.445312 C 247.988281 10.445312 249.914062 10.539062 251.835938 10.730469 C 253.753906 10.917969 255.660156 11.199219 257.554688 11.578125 C 259.445312 11.953125 261.316406 12.421875 263.164062 12.980469 C 265.007812 13.539062 266.824219 14.1875 268.605469 14.925781 C 270.390625 15.664062 272.132812 16.488281 273.832031 17.398438 C 275.535156 18.304688 277.1875 19.296875 278.792969 20.367188 C 280.398438 21.4375 281.945312 22.585938 283.4375 23.808594 C 284.929688 25.03125 286.355469 26.324219 287.71875 27.6875 C 289.085938 29.050781 290.378906 30.476562 291.605469 31.96875 C 292.828125 33.457031 293.976562 35.003906 295.046875 36.605469 C 296.121094 38.210938 297.109375 39.863281 298.019531 41.5625 C 298.929688 43.261719 299.753906 45.003906 300.492188 46.785156 C 301.230469 48.566406 301.878906 50.378906 302.441406 52.222656 C 303 54.066406 303.46875 55.9375 303.84375 57.828125 C 304.222656 59.71875 304.503906 61.621094 304.695312 63.539062 C 304.882812 65.460938 304.976562 67.382812 304.976562 69.3125 C 304.976562 71.238281 304.882812 73.160156 304.695312 75.082031 C 304.503906 77 304.222656 78.902344 303.84375 80.792969 C 303.46875 82.683594 303 84.554688 302.441406 86.398438 C 301.878906 88.242188 301.230469 90.054688 300.492188 91.835938 C 299.753906 93.617188 298.929688 95.359375 298.019531 97.058594 C 297.109375 98.757812 296.121094 100.410156 295.046875 102.015625 C 293.976562 103.617188 292.828125 105.164062 291.605469 106.652344 C 290.378906 108.144531 289.085938 109.570312 287.71875 110.933594 C 286.355469 112.296875 284.929688 113.589844 283.4375 114.8125 C 281.945312 116.035156 280.398438 117.183594 278.792969 118.253906 C 277.1875 119.324219 275.535156 120.316406 273.832031 121.226562 C 272.132812 122.132812 270.390625 122.957031 268.605469 123.695312 C 266.824219 124.433594 265.007812 125.082031 263.164062 125.640625 C 261.316406 126.199219 259.445312 126.667969 257.554688 127.042969 C 255.660156 127.421875 253.753906 127.703125 251.835938 127.890625 C 249.914062 128.082031 247.988281 128.175781 246.058594 128.175781 L 187.140625 128.175781 Z M 187.140625 10.445312 " fill-opacity="1" fill-rule="nonzero"/></g><g clip-path="url(#2b9d48a73c)"><path fill="#1abcfe" d="M 304.976562 187.039062 C 304.976562 188.96875 304.882812 190.890625 304.695312 192.808594 C 304.503906 194.726562 304.222656 196.632812 303.84375 198.523438 C 303.46875 200.414062 303 202.28125 302.441406 204.128906 C 301.878906 205.972656 301.230469 207.785156 300.492188 209.566406 C 299.753906 211.347656 298.929688 213.089844 298.019531 214.789062 C 297.109375 216.488281 296.121094 218.140625 295.046875 219.742188 C 293.976562 221.347656 292.828125 222.894531 291.605469 224.382812 C 290.378906 225.875 289.085938 227.300781 287.71875 228.664062 C 286.355469 230.027344 284.929688 231.320312 283.4375 232.542969 C 281.945312 233.765625 280.398438 234.914062 278.792969 235.984375 C 277.1875 237.054688 275.535156 238.046875 273.832031 238.953125 C 272.132812 239.863281 270.390625 240.6875 268.605469 241.425781 C 266.824219 242.160156 265.007812 242.808594 263.164062 243.371094 C 261.316406 243.929688 259.445312 244.398438 257.554688 244.773438 C 255.660156 245.148438 253.753906 245.433594 251.835938 245.621094 C 249.914062 245.808594 247.988281 245.90625 246.058594 245.90625 C 244.128906 245.90625 242.203125 245.808594 240.285156 245.621094 C 238.363281 245.433594 236.457031 245.148438 234.566406 244.773438 C 232.671875 244.398438 230.804688 243.929688 228.957031 243.371094 C 227.109375 242.808594 225.296875 242.160156 223.511719 241.425781 C 221.730469 240.6875 219.988281 239.863281 218.285156 238.953125 C 216.585938 238.046875 214.929688 237.054688 213.328125 235.984375 C 211.722656 234.914062 210.175781 233.765625 208.683594 232.542969 C 207.191406 231.320312 205.761719 230.027344 204.398438 228.664062 C 203.035156 227.300781 201.738281 225.875 200.515625 224.382812 C 199.292969 222.894531 198.144531 221.347656 197.070312 219.742188 C 196 218.140625 195.007812 216.488281 194.097656 214.789062 C 193.1875 213.089844 192.367188 211.347656 191.625 209.566406 C 190.886719 207.785156 190.238281 205.972656 189.679688 204.128906 C 189.117188 202.28125 188.652344 200.414062 188.273438 198.523438 C 187.898438 196.632812 187.613281 194.726562 187.425781 192.808594 C 187.238281 190.890625 187.140625 188.96875 187.140625 187.039062 C 187.140625 185.113281 187.238281 183.1875 187.425781 181.269531 C 187.613281 179.351562 187.898438 177.445312 188.273438 175.554688 C 188.652344 173.664062 189.117188 171.796875 189.679688 169.953125 C 190.238281 168.109375 190.886719 166.292969 191.625 164.511719 C 192.367188 162.730469 193.1875 160.992188 194.097656 159.292969 C 195.007812 157.589844 196 155.941406 197.070312 154.335938 C 198.144531 152.734375 199.292969 151.1875 200.515625 149.695312 C 201.738281 148.207031 203.035156 146.78125 204.398438 145.417969 C 205.761719 144.054688 207.191406 142.761719 208.683594 141.535156 C 210.175781 140.3125 211.722656 139.167969 213.328125 138.097656 C 214.929688 137.023438 216.585938 136.035156 218.285156 135.125 C 219.988281 134.21875 221.730469 133.394531 223.511719 132.65625 C 225.296875 131.917969 227.109375 131.269531 228.957031 130.710938 C 230.804688 130.152344 232.671875 129.683594 234.566406 129.304688 C 236.457031 128.929688 238.363281 128.648438 240.285156 128.457031 C 242.203125 128.269531 244.128906 128.175781 246.058594 128.175781 C 247.988281 128.175781 249.914062 128.269531 251.835938 128.457031 C 253.753906 128.648438 255.660156 128.929688 257.554688 129.304688 C 259.445312 129.683594 261.316406 130.152344 263.164062 130.710938 C 265.007812 131.269531 266.824219 131.917969 268.605469 132.65625 C 270.390625 133.394531 272.132812 134.21875 273.832031 135.125 C 275.535156 136.035156 277.1875 137.023438 278.792969 138.097656 C 280.398438 139.167969 281.945312 140.3125 283.4375 141.535156 C 284.929688 142.761719 286.355469 144.054688 287.722656 145.417969 C 289.085938 146.78125 290.378906 148.207031 291.605469 149.695312 C 292.828125 151.1875 293.976562 152.734375 295.046875 154.335938 C 296.121094 155.941406 297.109375 157.589844 298.019531 159.292969 C 298.929688 160.992188 299.753906 162.730469 300.492188 164.511719 C 301.230469 166.292969 301.878906 168.109375 302.441406 169.953125 C 303 171.796875 303.46875 173.664062 303.84375 175.554688 C 304.222656 177.445312 304.503906 179.351562 304.695312 181.269531 C 304.882812 183.1875 304.976562 185.113281 304.976562 187.039062 Z M 304.976562 187.039062 " fill-opacity="1" fill-rule="nonzero"/></g></svg>