<svg xmlns="http://www.w3.org/2000/svg" xmlns:xlink="http://www.w3.org/1999/xlink" width="500" zoomAndPan="magnify" viewBox="0 0 375 374.999991" height="500" preserveAspectRatio="xMidYMid meet" version="1.0"><defs><clipPath id="9c9ddf1e10"><path d="M 13 0 L 369 0 L 369 337.5 L 13 337.5 Z M 13 0 " clip-rule="nonzero"/></clipPath></defs><g clip-path="url(#9c9ddf1e10)"><path fill="#764abc" d="M 259.53125 235.734375 C 272.65625 234.390625 282.613281 223.070312 282.15625 209.5 C 281.699219 195.917969 270.390625 185.070312 256.820312 185.070312 L 255.90625 185.070312 C 241.890625 185.515625 231.027344 197.277344 231.472656 211.304688 C 231.933594 218.097656 234.640625 223.972656 238.722656 228.042969 C 223.335938 258.359375 199.804688 280.542969 164.511719 299.082031 C 140.53125 311.75 115.644531 316.277344 90.757812 313.109375 C 70.398438 310.402344 54.5625 301.347656 44.605469 286.417969 C 30.128906 264.25 28.769531 240.265625 40.988281 216.277344 C 49.582031 199.082031 63.15625 186.417969 71.753906 180.082031 C 69.945312 174.207031 67.230469 164.25 65.871094 157.015625 C 0.261719 204.515625 7.050781 268.765625 26.960938 299.082031 C 41.890625 321.707031 72.207031 335.734375 105.691406 335.734375 C 114.738281 335.734375 123.789062 334.832031 132.839844 332.570312 C 190.75 321.265625 234.640625 286.875 259.53125 235.734375 Z M 339.171875 179.640625 C 304.78125 139.359375 254.097656 117.191406 196.179688 117.191406 L 188.945312 117.191406 C 184.875 109.046875 176.277344 103.617188 166.777344 103.617188 L 165.875 103.617188 C 151.84375 104.070312 140.984375 115.832031 141.4375 129.859375 C 141.890625 143.429688 153.195312 154.292969 166.777344 154.292969 L 167.679688 154.292969 C 177.636719 153.847656 186.234375 147.515625 189.847656 138.917969 L 198 138.917969 C 232.375 138.917969 264.960938 148.859375 294.378906 168.320312 C 316.988281 183.25 333.28125 202.707031 342.339844 226.234375 C 350.03125 245.234375 349.574219 263.792969 341.433594 279.625 C 328.753906 303.609375 307.488281 316.734375 279.433594 316.734375 C 261.335938 316.734375 244.140625 311.304688 235.097656 307.234375 C 230.125 311.75 221.070312 319 214.738281 323.515625 C 234.195312 332.570312 254.097656 337.542969 273.101562 337.542969 C 316.546875 337.542969 348.671875 313.570312 360.878906 289.582031 C 374.003906 263.347656 373.101562 218.097656 339.171875 179.640625 Z M 109.304688 243.429688 C 109.757812 257 121.066406 267.859375 134.640625 267.859375 L 135.546875 267.859375 C 149.574219 267.417969 160.4375 255.652344 159.976562 241.625 C 159.535156 228.042969 148.214844 217.195312 134.640625 217.195312 L 133.738281 217.195312 C 132.832031 217.195312 131.476562 217.195312 130.570312 217.640625 C 112.019531 186.875 104.328125 153.390625 107.039062 117.191406 C 108.851562 90.042969 117.902344 66.515625 133.738281 47.058594 C 146.859375 30.316406 172.199219 22.171875 189.394531 21.71875 C 237.355469 20.8125 257.71875 80.539062 259.078125 104.523438 C 264.953125 105.878906 274.914062 109.046875 281.691406 111.308594 C 276.257812 38.007812 231.023438 0 187.578125 0 C 146.859375 0 109.304688 29.410156 94.371094 72.847656 C 73.558594 130.765625 87.132812 186.417969 112.46875 230.308594 C 110.207031 233.472656 108.851562 238.460938 109.304688 243.433594 Z M 109.304688 243.429688 " fill-opacity="1" fill-rule="nonzero"/></g></svg>