<svg xmlns="http://www.w3.org/2000/svg" xmlns:xlink="http://www.w3.org/1999/xlink" width="100" zoomAndPan="magnify" viewBox="0 0 144 143.999998" height="100" preserveAspectRatio="xMidYMid meet" version="1.0"><path fill="#f5f6f5" d="M 124.730469 72.765625 C 126.152344 71.109375 127.453125 69.296875 128.144531 67.226562 C 128.832031 65.152344 128.851562 62.785156 127.800781 60.871094 C 126.753906 58.957031 124.511719 57.644531 122.359375 58.042969 C 121.089844 58.28125 119.992188 59.050781 118.9375 59.796875 C 115.765625 62.058594 112.589844 64.316406 109.414062 66.578125 C 108.085938 67.523438 106.734375 68.488281 105.734375 69.777344 C 104.085938 71.90625 103.558594 74.734375 103.734375 77.417969 C 103.839844 79.007812 104.09375 83.558594 105.738281 84.359375 C 107.316406 85.128906 111.191406 82.808594 112.609375 82.109375 C 117.222656 79.847656 121.378906 76.660156 124.730469 72.765625 " fill-opacity="1" fill-rule="nonzero"/><path fill="#dbdad8" d="M 124.660156 72.84375 C 124.660156 72.84375 124.660156 72.84375 124.664062 72.84375 C 124.664062 72.84375 124.660156 72.84375 124.660156 72.84375 M 124.675781 72.824219 C 124.679688 72.824219 124.679688 72.824219 124.679688 72.820312 C 124.679688 72.824219 124.679688 72.824219 124.675781 72.824219 M 124.695312 72.804688 C 124.695312 72.804688 124.699219 72.800781 124.699219 72.796875 C 124.699219 72.800781 124.695312 72.804688 124.695312 72.804688 M 124.710938 72.785156 C 124.71875 72.78125 124.722656 72.773438 124.730469 72.765625 C 126.152344 71.109375 127.453125 69.296875 128.144531 67.226562 C 128.453125 66.289062 128.628906 65.285156 128.628906 64.296875 C 128.628906 65.285156 128.453125 66.289062 128.144531 67.226562 C 127.453125 69.296875 126.152344 71.109375 124.730469 72.765625 C 124.722656 72.773438 124.71875 72.777344 124.710938 72.785156 M 117.363281 60.917969 C 117.507812 60.816406 117.648438 60.71875 117.789062 60.617188 C 117.648438 60.71875 117.507812 60.816406 117.363281 60.917969 " fill-opacity="1" fill-rule="nonzero"/><path fill="#cfcecd" d="M 116.328125 80.019531 C 116.378906 74.125 116.542969 67.847656 116.539062 61.507812 C 116.816406 61.308594 117.089844 61.113281 117.363281 60.917969 C 117.507812 60.816406 117.648438 60.71875 117.789062 60.617188 C 117.402344 63.199219 117.199219 65.8125 117.175781 68.425781 C 117.167969 69.613281 118.140625 70.484375 119.214844 70.484375 C 119.519531 70.484375 119.832031 70.414062 120.132812 70.257812 C 122.117188 69.25 123.871094 67.78125 125.195312 65.988281 C 126.375 64.386719 127.203125 62.535156 127.636719 60.597656 C 127.695312 60.6875 127.75 60.777344 127.800781 60.871094 C 128.375 61.917969 128.628906 63.101562 128.628906 64.296875 C 128.628906 65.285156 128.453125 66.289062 128.144531 67.226562 C 127.453125 69.296875 126.152344 71.109375 124.730469 72.765625 C 124.722656 72.773438 124.71875 72.78125 124.710938 72.785156 C 124.710938 72.789062 124.703125 72.796875 124.699219 72.796875 C 124.699219 72.800781 124.695312 72.804688 124.695312 72.804688 C 124.691406 72.8125 124.683594 72.816406 124.679688 72.820312 C 124.679688 72.824219 124.679688 72.824219 124.675781 72.824219 C 124.671875 72.832031 124.667969 72.835938 124.664062 72.84375 C 124.660156 72.84375 124.660156 72.84375 124.660156 72.84375 C 122.253906 75.625 119.433594 78.042969 116.328125 80.019531 " fill-opacity="1" fill-rule="nonzero"/><path fill="#f5f6f5" d="M 20.839844 72.765625 C 19.417969 71.109375 18.117188 69.296875 17.429688 67.226562 C 16.738281 65.152344 16.71875 62.785156 17.769531 60.871094 C 18.820312 58.957031 21.0625 57.644531 23.210938 58.042969 C 24.480469 58.28125 25.578125 59.050781 26.632812 59.796875 C 29.808594 62.058594 32.984375 64.316406 36.15625 66.578125 C 37.488281 67.523438 38.835938 68.488281 39.835938 69.777344 C 41.488281 71.90625 42.015625 74.734375 41.835938 77.417969 C 41.734375 79.007812 41.476562 83.558594 39.832031 84.359375 C 38.253906 85.128906 34.378906 82.808594 32.960938 82.109375 C 28.351562 79.847656 24.191406 76.660156 20.839844 72.765625 " fill-opacity="1" fill-rule="nonzero"/><path fill="#dbdad8" d="M 21.507812 73.519531 C 21.503906 73.515625 21.503906 73.515625 21.5 73.511719 C 21.503906 73.515625 21.503906 73.515625 21.507812 73.519531 M 21.492188 73.5 C 21.488281 73.496094 21.484375 73.492188 21.480469 73.488281 C 21.484375 73.492188 21.488281 73.496094 21.492188 73.5 M 21.476562 73.480469 C 21.472656 73.476562 21.464844 73.472656 21.460938 73.464844 C 21.464844 73.472656 21.472656 73.476562 21.476562 73.480469 M 21.457031 73.464844 C 21.25 73.234375 21.042969 73 20.839844 72.765625 C 19.417969 71.109375 18.117188 69.296875 17.429688 67.226562 C 17.371094 67.054688 17.320312 66.882812 17.273438 66.710938 C 17.320312 66.882812 17.371094 67.054688 17.429688 67.226562 C 18.117188 69.296875 19.417969 71.109375 20.839844 72.765625 C 21.042969 73 21.25 73.234375 21.457031 73.464844 M 17.273438 66.710938 C 17.273438 66.707031 17.273438 66.703125 17.269531 66.699219 C 17.273438 66.703125 17.273438 66.703125 17.273438 66.710938 M 17.269531 66.691406 C 17.269531 66.691406 17.265625 66.691406 17.265625 66.691406 C 17.265625 66.691406 17.269531 66.691406 17.269531 66.691406 M 29.644531 61.941406 C 29.144531 61.585938 28.648438 61.230469 28.148438 60.875 C 28.648438 61.230469 29.144531 61.585938 29.644531 61.941406 " fill-opacity="1" fill-rule="nonzero"/><path fill="#cfcecd" d="M 29.441406 80.144531 C 26.515625 78.308594 23.832031 76.078125 21.507812 73.519531 C 21.503906 73.515625 21.503906 73.515625 21.5 73.511719 C 21.5 73.507812 21.496094 73.503906 21.492188 73.5 C 21.488281 73.496094 21.484375 73.492188 21.480469 73.488281 C 21.480469 73.488281 21.476562 73.484375 21.476562 73.480469 C 21.472656 73.476562 21.464844 73.472656 21.460938 73.464844 C 21.460938 73.464844 21.457031 73.464844 21.457031 73.464844 C 21.25 73.234375 21.042969 73 20.839844 72.765625 C 19.417969 71.109375 18.117188 69.296875 17.429688 67.226562 C 17.371094 67.054688 17.320312 66.882812 17.273438 66.710938 C 17.273438 66.703125 17.273438 66.703125 17.269531 66.699219 C 17.269531 66.695312 17.269531 66.695312 17.269531 66.691406 C 17.269531 66.691406 17.265625 66.691406 17.265625 66.691406 C 16.761719 64.820312 16.808594 62.773438 17.675781 61.054688 C 17.785156 61.164062 17.785156 61.507812 17.835938 61.730469 C 17.953125 62.238281 18.089844 62.742188 18.246094 63.242188 C 18.925781 65.421875 19.957031 67.492188 21.300781 69.339844 C 21.734375 69.9375 22.214844 70.523438 22.839844 70.917969 C 23.265625 71.1875 23.773438 71.355469 24.269531 71.355469 C 24.503906 71.355469 24.734375 71.320312 24.957031 71.238281 C 25.9375 70.875 26.429688 69.785156 26.671875 68.769531 C 27.15625 66.75 27.082031 64.625 27.550781 62.597656 C 27.6875 62.015625 27.886719 61.429688 28.148438 60.875 C 28.648438 61.230469 29.144531 61.585938 29.644531 61.941406 C 29.179688 68.8125 29.214844 75.128906 29.441406 80.144531 " fill-opacity="1" fill-rule="nonzero"/><path fill="#f5f6f5" d="M 76.273438 0.46875 C 132.832031 1.050781 110.738281 75.128906 118.03125 103.582031 C 123.445312 124.707031 127.648438 136.46875 120.105469 139.292969 C 116.109375 140.792969 112.160156 137.636719 108.628906 134.480469 C 105.5 131.6875 102.699219 128.890625 100.484375 129.332031 C 95.769531 130.273438 90.230469 144 80.515625 144 C 72.324219 144 72.03125 126.589844 66.378906 126.589844 C 60.722656 126.589844 53.339844 144 43.28125 141.648438 C 31.808594 138.964844 41.398438 126.589844 35.269531 124.234375 C 32.347656 123.113281 28.710938 124.832031 25.332031 126.554688 C 21.628906 128.441406 18.230469 130.324219 16.417969 128.46875 C 11.378906 123.320312 30.953125 106.421875 29.539062 82.035156 C 28.183594 58.628906 30.554688 0 76.273438 0.46875 " fill-opacity="1" fill-rule="nonzero"/><path fill="#100f0d" d="M 66.949219 41.023438 C 66.949219 45.574219 63.253906 49.269531 58.691406 49.269531 C 54.128906 49.269531 50.433594 45.574219 50.433594 41.023438 C 50.433594 36.46875 54.128906 32.777344 58.691406 32.777344 C 63.253906 32.777344 66.949219 36.46875 66.949219 41.023438 " fill-opacity="1" fill-rule="nonzero"/><path fill="#ffffff" d="M 58.925781 38.222656 C 58.925781 39.445312 57.933594 40.4375 56.710938 40.4375 C 55.488281 40.4375 54.496094 39.445312 54.496094 38.222656 C 54.496094 37.003906 55.488281 36.011719 56.710938 36.011719 C 57.933594 36.011719 58.925781 37.003906 58.925781 38.222656 " fill-opacity="1" fill-rule="nonzero"/><path fill="#100f0d" d="M 99.40625 41.023438 C 99.40625 45.574219 95.710938 49.269531 91.148438 49.269531 C 86.585938 49.269531 82.886719 45.574219 82.886719 41.023438 C 82.886719 36.46875 86.585938 32.777344 91.148438 32.777344 C 95.710938 32.777344 99.40625 36.46875 99.40625 41.023438 " fill-opacity="1" fill-rule="nonzero"/><path fill="#100f0d" d="M 74.917969 58.957031 C 71.769531 58.957031 69.210938 56.003906 69.210938 52.371094 C 69.210938 51.964844 69.539062 51.632812 69.949219 51.632812 C 70.355469 51.632812 70.6875 51.964844 70.6875 52.371094 C 70.6875 55.191406 72.585938 57.484375 74.917969 57.484375 C 77.253906 57.484375 79.152344 55.191406 79.152344 52.371094 C 79.152344 51.964844 79.484375 51.632812 79.890625 51.632812 C 80.296875 51.632812 80.628906 51.964844 80.628906 52.371094 C 80.628906 56.003906 78.070312 58.957031 74.917969 58.957031 " fill-opacity="1" fill-rule="nonzero"/><path fill="#ffffff" d="M 91.148438 38.222656 C 91.148438 39.445312 90.15625 40.4375 88.933594 40.4375 C 87.707031 40.4375 86.714844 39.445312 86.714844 38.222656 C 86.714844 37.003906 87.707031 36.011719 88.933594 36.011719 C 90.15625 36.011719 91.148438 37.003906 91.148438 38.222656 " fill-opacity="1" fill-rule="nonzero"/><path fill="#dbdad8" d="M 80.519531 144 C 88.605469 144 93.800781 134.480469 98.035156 130.753906 C 93.800781 134.480469 88.605469 144 80.519531 144 M 45.160156 141.863281 L 45.160156 141.863281 M 45.164062 141.863281 C 51.730469 141.863281 57.101562 133.917969 61.578125 129.488281 C 57.101562 133.917969 51.730469 141.863281 45.164062 141.863281 M 118.15625 139.675781 C 118.792969 139.660156 119.4375 139.542969 120.078125 139.304688 C 119.4375 139.542969 118.796875 139.660156 118.15625 139.675781 M 120.09375 139.300781 C 120.097656 139.296875 120.101562 139.296875 120.105469 139.292969 C 123.039062 138.195312 124.195312 135.75 124.195312 131.925781 C 124.195312 135.75 123.039062 138.195312 120.105469 139.292969 C 120.101562 139.296875 120.097656 139.296875 120.09375 139.300781 M 108.621094 134.472656 C 108.609375 134.464844 108.601562 134.457031 108.589844 134.449219 C 108.601562 134.457031 108.609375 134.464844 108.621094 134.472656 M 108.539062 134.402344 C 108.511719 134.378906 108.484375 134.351562 108.457031 134.324219 C 108.484375 134.351562 108.511719 134.378906 108.539062 134.402344 M 108.339844 134.222656 C 108.332031 134.214844 108.324219 134.207031 108.3125 134.199219 C 108.324219 134.207031 108.332031 134.214844 108.339844 134.222656 M 108.28125 134.167969 C 108.28125 134.167969 108.28125 134.167969 108.277344 134.167969 C 108.28125 134.167969 108.28125 134.167969 108.28125 134.167969 M 108.257812 134.148438 C 108.253906 134.144531 108.25 134.140625 108.246094 134.136719 C 108.25 134.140625 108.253906 134.144531 108.257812 134.148438 M 108.234375 134.128906 C 108.230469 134.125 108.222656 134.117188 108.214844 134.109375 C 108.222656 134.117188 108.230469 134.125 108.234375 134.128906 M 108.121094 134.027344 C 108.121094 134.027344 108.121094 134.027344 108.121094 134.023438 C 108.121094 134.027344 108.121094 134.027344 108.121094 134.027344 M 100.484375 129.332031 C 100.640625 129.300781 100.800781 129.285156 100.964844 129.285156 C 100.800781 129.285156 100.640625 129.300781 100.484375 129.332031 M 100.96875 129.285156 C 100.96875 129.285156 100.964844 129.285156 100.964844 129.285156 C 100.964844 129.285156 100.96875 129.285156 100.96875 129.285156 M 18.363281 129.230469 C 18.355469 129.230469 18.351562 129.230469 18.34375 129.230469 C 18.351562 129.230469 18.355469 129.230469 18.363281 129.230469 M 18.523438 129.230469 C 19.523438 129.191406 20.6875 128.789062 21.949219 128.222656 C 20.6875 128.789062 19.523438 129.191406 18.523438 129.230469 M 16.429688 128.484375 C 16.425781 128.480469 16.421875 128.476562 16.417969 128.46875 C 16.414062 128.46875 16.414062 128.464844 16.410156 128.464844 C 16.414062 128.464844 16.414062 128.46875 16.417969 128.46875 C 16.421875 128.476562 16.425781 128.480469 16.429688 128.484375 M 16.410156 128.460938 C 16.40625 128.460938 16.402344 128.457031 16.402344 128.457031 C 16.40625 128.457031 16.40625 128.460938 16.410156 128.460938 M 16.402344 128.457031 C 16.398438 128.449219 16.394531 128.445312 16.386719 128.441406 C 16.394531 128.445312 16.398438 128.449219 16.402344 128.457031 M 16.386719 128.441406 C 16.382812 128.4375 16.382812 128.433594 16.378906 128.433594 C 16.382812 128.433594 16.382812 128.4375 16.386719 128.441406 M 16.378906 128.433594 C 16.277344 128.328125 16.1875 128.214844 16.109375 128.097656 C 16.1875 128.214844 16.277344 128.324219 16.378906 128.433594 M 16.109375 128.097656 C 16.105469 128.09375 16.105469 128.09375 16.101562 128.089844 C 16.105469 128.09375 16.105469 128.09375 16.109375 128.097656 M 16.101562 128.089844 C 16.097656 128.082031 16.09375 128.078125 16.09375 128.074219 C 16.09375 128.078125 16.097656 128.082031 16.101562 128.089844 M 16.089844 128.070312 C 16.089844 128.070312 16.085938 128.066406 16.085938 128.0625 C 16.085938 128.066406 16.089844 128.070312 16.089844 128.070312 M 16.085938 128.0625 C 16.082031 128.058594 16.082031 128.058594 16.078125 128.054688 C 16.082031 128.058594 16.082031 128.058594 16.085938 128.0625 M 16.078125 128.054688 C 16.078125 128.054688 16.078125 128.050781 16.074219 128.046875 C 16.078125 128.050781 16.078125 128.054688 16.078125 128.054688 M 16.074219 128.046875 C 16.074219 128.042969 16.070312 128.042969 16.070312 128.039062 C 16.070312 128.042969 16.074219 128.042969 16.074219 128.046875 M 16.066406 128.039062 C 16.066406 128.035156 16.066406 128.035156 16.0625 128.03125 C 16.066406 128.035156 16.066406 128.035156 16.066406 128.039062 M 16.0625 128.027344 C 16.0625 128.027344 16.058594 128.023438 16.058594 128.023438 C 16.058594 128.023438 16.0625 128.027344 16.0625 128.027344 M 16.058594 128.019531 C 16.054688 128.019531 16.054688 128.015625 16.054688 128.015625 C 16.054688 128.015625 16.054688 128.019531 16.058594 128.019531 M 16.050781 128.011719 C 16.050781 128.007812 16.050781 128.007812 16.050781 128.007812 C 16.050781 128.007812 16.050781 128.007812 16.050781 128.011719 M 16.042969 128 L 16.042969 128 M 16.035156 127.984375 L 16.035156 127.984375 M 27.132812 125.660156 C 29.199219 124.679688 31.296875 123.878906 33.21875 123.878906 C 31.296875 123.878906 29.199219 124.679688 27.132812 125.660156 M 35.253906 124.230469 C 35.25 124.226562 35.246094 124.226562 35.242188 124.222656 C 35.246094 124.226562 35.25 124.226562 35.253906 124.230469 M 33.230469 123.878906 C 33.226562 123.878906 33.226562 123.878906 33.226562 123.878906 C 33.226562 123.878906 33.226562 123.878906 33.230469 123.878906 M 118.027344 103.5625 C 118.027344 103.5625 118.023438 103.558594 118.023438 103.554688 C 118.023438 103.558594 118.027344 103.558594 118.027344 103.5625 M 118.019531 103.542969 C 118.019531 103.539062 118.019531 103.539062 118.019531 103.535156 C 118.019531 103.539062 118.019531 103.539062 118.019531 103.542969 M 118.015625 103.523438 C 118.015625 103.519531 118.015625 103.515625 118.011719 103.515625 C 118.015625 103.515625 118.015625 103.519531 118.015625 103.523438 M 118.011719 103.503906 C 118.007812 103.496094 118.007812 103.496094 118.007812 103.492188 C 118.007812 103.496094 118.011719 103.5 118.011719 103.503906 M 118.003906 103.484375 C 118.003906 103.476562 118.003906 103.476562 118.003906 103.472656 C 118.003906 103.476562 118.003906 103.476562 118.003906 103.484375 M 118 103.460938 C 118 103.457031 118 103.457031 117.996094 103.453125 C 118 103.457031 118 103.457031 118 103.460938 M 117.996094 103.441406 C 117.996094 103.4375 117.992188 103.4375 117.992188 103.433594 C 117.992188 103.4375 117.996094 103.4375 117.996094 103.441406 M 117.988281 103.417969 C 117.988281 103.417969 117.988281 103.414062 117.988281 103.414062 C 117.988281 103.414062 117.988281 103.417969 117.988281 103.417969 M 117.984375 103.398438 C 117.984375 103.398438 117.984375 103.394531 117.980469 103.394531 C 117.984375 103.394531 117.984375 103.398438 117.984375 103.398438 M 117.980469 103.378906 C 117.976562 103.375 117.976562 103.375 117.976562 103.375 C 117.976562 103.375 117.976562 103.375 117.980469 103.378906 M 117.972656 103.355469 L 117.972656 103.351562 L 117.972656 103.355469 M 117.960938 103.308594 L 117.960938 103.308594 M 117.957031 103.289062 C 117.957031 103.289062 117.957031 103.285156 117.957031 103.285156 C 117.957031 103.285156 117.957031 103.289062 117.957031 103.289062 M 117.953125 103.269531 C 117.953125 103.269531 117.949219 103.265625 117.949219 103.265625 C 117.949219 103.265625 117.953125 103.269531 117.953125 103.269531 M 117.945312 103.25 C 117.945312 103.246094 117.945312 103.246094 117.945312 103.246094 C 117.945312 103.246094 117.945312 103.246094 117.945312 103.25 M 117.941406 103.230469 C 117.941406 103.226562 117.941406 103.226562 117.941406 103.222656 C 117.941406 103.226562 117.941406 103.226562 117.941406 103.230469 M 117.9375 103.207031 C 117.9375 103.207031 117.9375 103.207031 117.9375 103.203125 C 117.9375 103.207031 117.9375 103.207031 117.9375 103.207031 M 117.933594 103.1875 C 117.929688 103.183594 117.929688 103.183594 117.929688 103.179688 C 117.929688 103.183594 117.929688 103.183594 117.933594 103.1875 M 117.925781 103.164062 L 117.925781 103.160156 C 117.925781 103.164062 117.925781 103.164062 117.925781 103.164062 M 117.921875 103.144531 L 117.921875 103.140625 L 117.921875 103.144531 M 117.914062 103.121094 L 117.914062 103.121094 M 117.890625 103.015625 L 117.890625 103.011719 L 117.890625 103.015625 M 117.886719 102.992188 L 117.886719 102.992188 M 117.878906 102.972656 L 117.878906 102.96875 C 117.878906 102.972656 117.878906 102.972656 117.878906 102.972656 M 117.875 102.953125 L 117.875 102.949219 L 117.875 102.953125 M 117.871094 102.929688 L 117.871094 102.925781 C 117.871094 102.929688 117.871094 102.929688 117.871094 102.929688 " fill-opacity="1" fill-rule="nonzero"/><path fill="#cfcecd" d="M 80.515625 144 C 72.324219 144 72.03125 126.589844 66.378906 126.589844 C 64.898438 126.589844 63.304688 127.777344 61.578125 129.488281 C 57.101562 133.917969 51.730469 141.863281 45.164062 141.863281 C 45.160156 141.863281 45.160156 141.863281 45.160156 141.863281 C 44.542969 141.863281 43.917969 141.796875 43.28125 141.648438 C 38.164062 140.449219 37.234375 137.320312 37.238281 134.015625 C 37.238281 132.140625 37.535156 130.210938 37.535156 128.542969 C 37.535156 126.558594 37.113281 124.941406 35.269531 124.234375 C 35.261719 124.234375 35.257812 124.230469 35.253906 124.230469 C 35.25 124.226562 35.246094 124.226562 35.242188 124.222656 C 34.601562 123.980469 33.925781 123.878906 33.230469 123.878906 C 33.226562 123.878906 33.226562 123.878906 33.226562 123.878906 C 33.222656 123.878906 33.222656 123.878906 33.21875 123.878906 C 31.296875 123.878906 29.199219 124.679688 27.132812 125.660156 C 26.527344 125.949219 25.925781 126.25 25.332031 126.554688 C 24.160156 127.148438 23.019531 127.746094 21.949219 128.222656 C 20.6875 128.789062 19.523438 129.191406 18.523438 129.230469 C 18.46875 129.230469 18.414062 129.230469 18.363281 129.230469 C 18.355469 129.230469 18.351562 129.230469 18.34375 129.230469 C 17.597656 129.226562 16.949219 129.007812 16.429688 128.484375 C 16.425781 128.480469 16.421875 128.476562 16.417969 128.46875 C 16.414062 128.46875 16.414062 128.464844 16.410156 128.464844 L 16.410156 128.460938 C 16.40625 128.460938 16.40625 128.457031 16.402344 128.457031 C 16.398438 128.449219 16.394531 128.445312 16.386719 128.441406 C 16.382812 128.4375 16.382812 128.433594 16.378906 128.433594 C 16.277344 128.324219 16.1875 128.214844 16.109375 128.097656 C 16.105469 128.09375 16.105469 128.09375 16.101562 128.089844 C 16.097656 128.082031 16.09375 128.078125 16.09375 128.074219 C 16.089844 128.074219 16.089844 128.074219 16.089844 128.070312 C 16.089844 128.070312 16.085938 128.066406 16.085938 128.0625 C 16.082031 128.058594 16.082031 128.058594 16.078125 128.054688 C 16.078125 128.054688 16.078125 128.050781 16.074219 128.046875 C 16.074219 128.042969 16.070312 128.042969 16.070312 128.039062 C 16.070312 128.039062 16.070312 128.039062 16.066406 128.039062 C 16.066406 128.035156 16.066406 128.035156 16.0625 128.03125 C 16.0625 128.03125 16.0625 128.027344 16.0625 128.027344 C 16.0625 128.027344 16.058594 128.023438 16.058594 128.023438 C 16.058594 128.023438 16.058594 128.023438 16.058594 128.019531 C 16.054688 128.019531 16.054688 128.015625 16.054688 128.015625 C 16.054688 128.015625 16.050781 128.011719 16.050781 128.011719 C 16.050781 128.007812 16.050781 128.007812 16.050781 128.007812 C 16.046875 128.003906 16.046875 128.003906 16.042969 128 C 16.039062 127.992188 16.039062 127.988281 16.035156 127.984375 C 16.03125 127.980469 16.03125 127.976562 16.027344 127.972656 C 15.0625 126.402344 15.773438 123.988281 17.277344 120.820312 C 18.363281 121.308594 19.527344 121.585938 20.71875 121.585938 C 21.457031 121.585938 22.207031 121.480469 22.949219 121.246094 C 25.535156 120.4375 27.59375 118.5 29.988281 117.230469 C 31.222656 116.570312 32.699219 116.132812 34.09375 116.132812 C 35.402344 116.132812 36.640625 116.515625 37.550781 117.457031 C 40.292969 120.292969 37.808594 125.46875 39.976562 128.765625 C 40.957031 130.257812 42.632812 130.90625 44.417969 130.90625 C 46.226562 130.90625 48.148438 130.238281 49.566406 129.105469 C 52.382812 126.855469 53.917969 123.421875 56.019531 120.496094 C 57.917969 117.855469 60.789062 115.429688 63.949219 115.429688 C 64.285156 115.429688 64.625 115.453125 64.972656 115.511719 C 68.894531 116.183594 71.035156 120.316406 72.882812 123.835938 C 74.59375 127.101562 77.382812 130.640625 80.910156 130.640625 C 81.1875 130.640625 81.472656 130.621094 81.757812 130.574219 C 86.496094 129.816406 85.855469 122.847656 89.144531 119.359375 C 90.90625 117.488281 92.109375 116.433594 94.492188 116.433594 C 94.648438 116.433594 94.808594 116.4375 94.976562 116.445312 C 95.1875 116.457031 95.402344 116.464844 95.613281 116.464844 C 100.519531 116.464844 104.976562 113.375 105.417969 108.457031 C 107.15625 89.207031 107.710938 68.523438 106.03125 49.269531 C 104.972656 37.214844 103.277344 27.476562 96.0625 13.199219 C 93.667969 8.46875 90.816406 4.769531 88.105469 1.886719 C 129.226562 12.226562 111.601562 76.277344 117.871094 102.925781 L 117.871094 102.929688 C 117.871094 102.9375 117.875 102.941406 117.875 102.949219 L 117.875 102.953125 C 117.875 102.957031 117.878906 102.960938 117.878906 102.96875 L 117.878906 102.972656 C 117.882812 102.976562 117.882812 102.988281 117.886719 102.992188 C 117.886719 103 117.886719 103.007812 117.890625 103.011719 L 117.890625 103.015625 C 117.890625 103.019531 117.894531 103.027344 117.894531 103.035156 C 117.902344 103.066406 117.910156 103.089844 117.914062 103.121094 C 117.917969 103.128906 117.917969 103.132812 117.921875 103.140625 L 117.921875 103.144531 C 117.921875 103.152344 117.925781 103.15625 117.925781 103.160156 L 117.925781 103.164062 C 117.925781 103.171875 117.929688 103.175781 117.929688 103.179688 C 117.929688 103.183594 117.929688 103.183594 117.933594 103.1875 C 117.933594 103.191406 117.933594 103.195312 117.9375 103.203125 C 117.9375 103.207031 117.9375 103.207031 117.9375 103.207031 C 117.9375 103.214844 117.941406 103.21875 117.941406 103.222656 C 117.941406 103.226562 117.941406 103.226562 117.941406 103.230469 C 117.941406 103.234375 117.945312 103.238281 117.945312 103.246094 C 117.945312 103.246094 117.945312 103.246094 117.945312 103.25 C 117.949219 103.253906 117.949219 103.257812 117.949219 103.265625 C 117.949219 103.265625 117.953125 103.269531 117.953125 103.269531 C 117.953125 103.273438 117.957031 103.28125 117.957031 103.285156 C 117.957031 103.285156 117.957031 103.289062 117.957031 103.289062 C 117.957031 103.296875 117.960938 103.300781 117.960938 103.308594 C 117.964844 103.324219 117.96875 103.339844 117.972656 103.351562 L 117.972656 103.355469 C 117.976562 103.359375 117.976562 103.367188 117.976562 103.375 C 117.976562 103.375 117.976562 103.375 117.980469 103.378906 C 117.980469 103.382812 117.980469 103.386719 117.980469 103.394531 C 117.984375 103.394531 117.984375 103.398438 117.984375 103.398438 C 117.984375 103.402344 117.984375 103.410156 117.988281 103.414062 C 117.988281 103.414062 117.988281 103.417969 117.988281 103.417969 C 117.992188 103.425781 117.992188 103.429688 117.992188 103.433594 C 117.992188 103.4375 117.996094 103.4375 117.996094 103.441406 C 117.996094 103.445312 117.996094 103.449219 117.996094 103.453125 C 118 103.457031 118 103.457031 118 103.460938 C 118 103.464844 118 103.46875 118.003906 103.472656 C 118.003906 103.476562 118.003906 103.476562 118.003906 103.484375 C 118.003906 103.488281 118.007812 103.488281 118.007812 103.492188 C 118.007812 103.496094 118.007812 103.496094 118.011719 103.503906 C 118.011719 103.507812 118.011719 103.507812 118.011719 103.515625 C 118.015625 103.515625 118.015625 103.519531 118.015625 103.523438 C 118.015625 103.527344 118.015625 103.53125 118.019531 103.535156 C 118.019531 103.539062 118.019531 103.539062 118.019531 103.542969 C 118.019531 103.546875 118.023438 103.550781 118.023438 103.554688 C 118.023438 103.558594 118.027344 103.5625 118.027344 103.5625 C 118.027344 103.570312 118.03125 103.578125 118.03125 103.582031 C 121.339844 116.496094 124.199219 125.914062 124.195312 131.925781 C 124.195312 135.75 123.039062 138.195312 120.105469 139.292969 C 120.101562 139.296875 120.097656 139.296875 120.09375 139.300781 C 120.089844 139.300781 120.089844 139.300781 120.089844 139.300781 C 120.085938 139.300781 120.082031 139.304688 120.078125 139.304688 C 119.4375 139.542969 118.792969 139.660156 118.15625 139.675781 C 118.105469 139.675781 118.050781 139.675781 117.996094 139.675781 C 114.730469 139.675781 111.535156 137.078125 108.628906 134.480469 C 108.625 134.476562 108.621094 134.476562 108.621094 134.472656 C 108.609375 134.464844 108.601562 134.457031 108.589844 134.449219 C 108.574219 134.433594 108.558594 134.417969 108.539062 134.402344 C 108.511719 134.378906 108.484375 134.351562 108.457031 134.324219 C 108.417969 134.289062 108.378906 134.257812 108.339844 134.222656 C 108.332031 134.214844 108.324219 134.207031 108.3125 134.199219 C 108.304688 134.191406 108.292969 134.179688 108.28125 134.167969 C 108.28125 134.167969 108.28125 134.167969 108.277344 134.167969 C 108.273438 134.160156 108.265625 134.15625 108.257812 134.148438 C 108.253906 134.144531 108.25 134.140625 108.246094 134.136719 C 108.242188 134.136719 108.238281 134.132812 108.234375 134.128906 C 108.230469 134.125 108.222656 134.117188 108.214844 134.109375 C 108.1875 134.082031 108.152344 134.054688 108.121094 134.027344 C 108.121094 134.027344 108.121094 134.027344 108.121094 134.023438 C 105.417969 131.589844 102.976562 129.289062 100.96875 129.285156 C 100.96875 129.285156 100.964844 129.285156 100.964844 129.285156 C 100.800781 129.285156 100.640625 129.300781 100.484375 129.332031 C 99.695312 129.488281 98.886719 130.003906 98.035156 130.753906 C 93.800781 134.480469 88.605469 144 80.519531 144 C 80.519531 144 80.515625 144 80.515625 144 " fill-opacity="1" fill-rule="nonzero"/></svg>